<?xml version="1.0" encoding="UTF-8" standalone="no"?>
<!DOCTYPE svg PUBLIC "-//W3C//DTD SVG 1.1//EN" "http://www.w3.org/Graphics/SVG/1.1/DTD/svg11.dtd">
<svg xmlns="http://www.w3.org/2000/svg" version="1.1" viewBox="0.00 0.00 1024.00 1024.00">
<path fill="currentColor" d="
  M 426.27 512.72
  C 422.80 512.72 419.70 514.73 418.21 517.76
  Q 417.56 519.09 417.55 524.36
  Q 417.49 638.58 417.59 657.23
  C 417.70 677.15 432.42 693.57 451.84 696.38
  C 456.34 697.03 459.37 697.05 462.05 698.76
  Q 466.06 701.32 467.05 706.29
  Q 469.28 717.51 467.13 727.83
  Q 465.96 733.48 461.39 735.76
  Q 458.74 737.08 451.45 736.98
  Q 441.78 736.85 307.37 736.94
  Q 297.35 736.94 295.72 736.30
  C 290.39 734.17 288.83 729.30 288.50 723.46
  Q 287.95 713.81 289.30 707.82
  C 290.62 701.92 294.50 699.23 300.53 696.30
  Q 316.81 688.39 320.21 668.80
  Q 321.02 664.14 321.02 656.25
  Q 320.87 295.88 321.09 232.81
  Q 321.09 232.30 320.82 225.81
  C 320.36 214.59 316.52 205.32 307.52 198.34
  C 299.08 191.81 291.11 192.34 281.29 191.72
  Q 271.59 191.10 268.68 182.05
  Q 268.03 179.99 267.95 174.50
  Q 267.77 161.68 267.91 155.25
  C 268.11 146.19 272.25 139.95 282.00 139.96
  Q 392.91 140.02 550.81 139.96
  Q 569.58 139.96 580.13 141.24
  C 634.58 147.88 686.96 170.33 720.33 214.21
  C 741.94 242.62 752.89 275.88 754.78 311.37
  Q 755.75 329.53 754.39 345.62
  C 750.30 394.20 728.54 438.92 688.84 468.18
  Q 669.94 482.11 649.24 491.23
  Q 614.21 506.67 575.14 511.36
  Q 563.44 512.76 543.83 512.74
  Q 479.60 512.68 426.27 512.72
  Z
  M 427.01 201.54
  C 421.87 201.54 417.54 205.09 417.55 210.33
  Q 417.59 436.95 417.55 437.61
  C 417.11 444.85 419.06 450.64 426.74 450.68
  Q 463.89 450.87 532.99 450.62
  C 559.85 450.52 586.12 445.04 608.55 430.81
  C 640.66 410.45 658.31 375.47 660.73 338.00
  C 662.56 309.73 656.93 282.01 642.30 257.66
  C 622.16 224.14 585.67 201.85 546.24 201.59
  Q 525.11 201.45 427.01 201.54
  Z"
/>
<path fill="currentColor" d="
  M 459.68 612.94
  C 461.94 610.36 465.73 609.79 469.34 609.77
  Q 496.71 609.63 523.63 609.98
  Q 530.62 610.07 535.31 610.52
  C 540.49 611.03 545.33 610.88 550.89 611.34
  Q 565.61 612.58 574.56 613.44
  C 618.47 617.66 662.87 626.15 704.01 641.48
  C 736.10 653.44 776.29 676.81 782.82 713.29
  C 787.11 737.28 779.23 759.71 764.05 778.57
  C 746.65 800.19 724.05 817.22 699.94 830.68
  Q 652.31 857.26 599.57 869.33
  Q 585.81 872.47 574.58 873.90
  C 563.06 875.36 553.53 871.02 552.70 858.49
  C 552.12 849.70 554.45 842.05 564.26 840.25
  Q 625.00 829.05 677.86 800.36
  C 696.68 790.14 715.09 776.64 729.60 760.61
  C 735.66 753.91 741.88 744.07 743.72 735.26
  C 747.53 717.03 737.93 702.93 723.67 692.51
  Q 710.78 683.08 695.36 676.58
  C 661.40 662.26 624.83 654.59 588.55 650.18
  Q 544.72 644.85 494.75 644.28
  Q 482.01 644.13 468.01 644.72
  Q 461.27 645.00 457.88 639.13
  C 453.70 631.88 454.00 619.44 459.68 612.94
  Z"
/>
<path fill="currentColor" d="
  M 613.55 735.20
  C 608.47 728.60 595.63 724.60 587.43 722.53
  Q 559.94 715.59 529.99 714.59
  C 523.69 714.38 520.14 709.57 519.09 703.46
  C 517.42 693.70 519.00 681.18 531.24 680.16
  Q 537.69 679.62 546.13 680.37
  C 574.47 682.87 600.79 687.50 625.53 698.73
  C 634.06 702.60 644.46 709.78 649.60 717.62
  C 661.78 736.21 652.85 755.83 637.19 768.94
  Q 625.90 778.40 609.59 785.81
  Q 590.53 794.47 569.62 800.10
  Q 540.24 808.01 512.03 811.81
  Q 484.39 815.55 461.00 816.69
  C 438.91 817.77 416.60 818.43 394.75 817.53
  Q 377.36 816.81 376.76 816.78
  Q 352.59 815.68 326.75 811.78
  C 291.62 806.47 258.54 797.83 227.62 782.67
  C 206.35 772.24 183.75 754.95 179.56 730.01
  C 169.83 672.08 231.26 642.52 275.93 628.66
  Q 279.62 627.51 282.52 629.23
  Q 287.12 631.95 287.26 638.00
  Q 287.28 639.04 287.21 648.12
  C 287.15 655.40 287.50 660.08 280.70 662.96
  Q 277.87 664.16 263.99 670.00
  Q 257.09 672.90 246.46 678.96
  C 231.96 687.24 215.11 701.70 217.97 720.50
  C 219.79 732.45 231.15 741.30 240.81 746.70
  C 262.95 759.07 288.60 766.60 313.73 771.29
  Q 342.74 776.71 370.70 778.54
  Q 442.67 783.24 512.74 773.46
  C 540.16 769.64 568.52 763.25 593.45 752.44
  C 596.82 750.98 617.75 740.66 613.55 735.20
  Z"
/>
</svg>
