<?xml version="1.0" encoding="UTF-8" standalone="no"?>
<!-- Created with Inkscape (http://www.inkscape.org/) -->

<svg
   version="1.1"
   id="svg1"
   width="1365.3333"
   height="1365.3333"
   viewBox="0 0 1365.3333 1365.3333"
   xmlns="http://www.w3.org/2000/svg"
   xmlns:svg="http://www.w3.org/2000/svg">
  <defs
     id="defs1" />
  <circle
     style="fill:#ddc7ba;fill-opacity:1"
     id="path2"
     cy="682.35297"
     cx="682.35297"
     r="680" />
  <g
     id="g1">
    <path
       style="fill:#000000"
       d="m 748.02653,1162.9979 c -16.17507,-8.1267 -14.91623,-38.6757 1.74285,-42.2948 25.74134,-5.5922 48.91032,-11.348 62.89724,-15.6254 46.32965,-14.168 98.27316,-39.4071 127.49976,-61.9514 24.15992,-18.636 38.83171,-34.5693 46.75892,-50.77935 4.09363,-8.37089 4.40797,-9.9645 4.40797,-22.34701 0,-12.63229 -0.23807,-13.77237 -4.52809,-21.68353 -12.01757,-22.16148 -41.7959,-41.01768 -89.84218,-56.88978 -62.70164,-20.71351 -144.14874,-31.40485 -239.36259,-31.42049 -42.79455,-0.007 -43.49512,-0.14856 -48.13056,-9.72412 -5.3739,-11.10099 -2.47468,-29.68408 5.41839,-34.73021 5.00619,-3.20052 24.96414,-3.82216 74.44505,-2.31881 72.29404,2.19648 122.34478,7.92644 176.46397,20.20215 78.47305,17.79983 132.37262,44.28293 159.55324,78.39512 13.3623,16.77002 18.6261,30.77905 19.6149,52.20333 0.8543,18.51098 -1.8848,31.49268 -10.4021,49.2997 -30.4939,63.753 -137.89736,127.6248 -250.96437,149.2461 -17.85834,3.415 -29.33936,3.55 -35.5724,0.4185 z m -239.35989,-73.1236 c -74.23911,-4.3708 -130.8191,-15.4257 -181.04027,-35.3724 -49.606,-19.7025 -77.92312,-44.1445 -87.08593,-75.16863 -3.21532,-10.88665 -3.21387,-33.12176 0.003,-43.99999 8.93299,-30.20916 34.03335,-55.8688 74.78999,-76.45646 14.69129,-7.4211 40.11689,-17.5344 50.96619,-20.27234 8.07485,-2.03778 12.15568,-0.66877 15.22038,5.10603 2.43765,4.59324 1.8172,31.73429 -0.81736,35.75514 -1.07132,1.63504 -8.70126,5.7329 -18.27101,9.81294 -38.6098,16.46116 -58.22482,30.54393 -67.19299,48.24176 -9.49073,18.72904 -3.70649,37.06602 16.16513,51.24612 10.36173,7.39398 34.38394,18.93303 52.21312,25.08053 84.08303,28.9918 231.55863,34.104 349.10664,12.1017 33.38092,-6.2482 70.03196,-17.8827 88.0156,-27.93974 8.99319,-5.02928 17.92761,-12.61937 17.92761,-15.23012 0,-5.59647 -16.56393,-14.14833 -37.33333,-19.27498 -23.35725,-5.76542 -32.7126,-7.11058 -74.43468,-10.70261 -8.00989,-0.6896 -13.00908,-5.6993 -14.93237,-14.96375 -2.73387,-13.16898 1.11631,-24.90426 9.61213,-29.29762 8.63588,-4.46579 56.82361,-0.0519 89.29516,8.17918 60.18783,15.25683 87.61266,38.95355 82.369,71.17181 -7.99686,49.13463 -95.10676,86.52543 -231.90923,99.54403 -20.65916,1.966 -112.13742,3.6481 -132.66666,2.4394 z M 391.85071,980.66709 c -5.39365,-2.9314 -7.19031,-8.97505 -7.13488,-24.00048 0.0647,-17.54607 1.33508,-19.83835 15.8544,-28.60843 16.60056,-10.02721 23.26048,-19.76498 26.07961,-38.13221 0.98231,-6.39998 1.30728,-100.04922 1.05233,-303.25934 -0.35511,-283.03884 -0.46155,-294.25522 -2.855,-300.84597 -6.70212,-18.4554 -20.00257,-27.62678 -42.89954,-29.58154 -22.74607,-1.94189 -24.61432,-4.6675 -24.61432,-35.91013 0,-19.93073 0.19115,-21.55162 3.04002,-25.77907 1.67201,-2.48109 4.52201,-5.26098 6.33334,-6.17752 2.58948,-1.31029 45.23811,-1.67063 199.55834,-1.68609 167.73365,-0.0168 198.50517,0.274 211.67473,2.00038 107.52757,14.09563 187.03254,72.95698 216.17357,160.04368 10.03839,29.9994 13.13219,53.77919 12.19039,93.70001 -0.6859,29.0695 -1.9533,39.35264 -7.54755,61.23363 -21.65874,84.71519 -87.15661,144.44317 -186.08953,169.69639 -38.40857,9.80402 -36.64803,9.67963 -149.11889,10.53615 l -101.11889,0.77008 -2.54777,3.14771 c -2.45562,3.03386 -2.54777,6.63439 -2.54777,99.54787 0,90.01609 0.1632,96.9245 2.46427,104.31787 3.00798,9.66466 9.00376,18.6306 16.54178,24.73618 8.2872,6.71241 13.33683,8.90809 26.61083,11.57097 18.66417,3.74419 21.70513,8.29387 20.81562,31.143 -0.57228,14.70039 -2.30093,19.16671 -8.51394,21.99754 -2.46685,1.12397 -32.56667,1.52445 -111.64796,1.48545 -90.91603,-0.0448 -108.82881,-0.35677 -111.75319,-1.94613 z M 754.93195,596.2252 c 61.91204,-13.9742 101.68823,-50.15976 119.10682,-108.35494 4.92363,-16.44976 6.54889,-29.72187 6.4335,-52.53695 -0.15352,-30.35551 -4.80746,-51.4221 -17.15294,-77.64474 -19.34237,-41.08454 -56.23473,-72.00742 -100.28291,-84.05634 l -13.03646,-3.566 -93.0014,-0.42566 -93.0014,-0.42566 -3.33193,3.33193 -3.33193,3.33193 v 158.54745 158.54745 l 2.82354,3.58955 2.82354,3.58955 89.50979,-0.50434 c 86.28189,-0.48616 89.97614,-0.60961 102.44178,-3.42323 z"
       id="path1" />
  </g>
</svg>
